# xmcd
#
# Track frame offsets:
#	150
#	17837
#	36993
#	54954
#	78137
#	95286
#	110760
#	131751
#	151552
#	178441
#
# Disc length: 3720 seconds
#
# Revision: 0
# Processed by: cddbd v1.5.1PL2 Copyright (c) Steve Scherf et al.
# Submitted via: dBpowerAMP V4.0
#
DISCID=780e860a
DTITLE=Leroy Bell - Two Sides To Every Story
DYEAR=2006
DGENRE=Blues
TTITLE0=Voodoo
TTITLE1=You Lied to Me
TTITLE2=Still Not Over You
TTITLE3=Father to Son
TTITLE4=Waiting
TTITLE5=21st Century Man
TTITLE6=I Want You to Know Me
TTITLE7=Every Touch
TTITLE8=Mexico
TTITLE9=I'm in Love
EXTD=
EXTT0=
EXTT1=
EXTT2=
EXTT3=
EXTT4=
EXTT5=
EXTT6=
EXTT7=
EXTT8=
EXTT9=
PLAYORDER=
